<svg xmlns="http://www.w3.org/2000/svg" width="603.19" height="624.521"><path data-name="Path 9069" d="M129.3 565.64l7.524 8.473a11.359 11.359 0 01-15.2-7.141c-1.305-4.55-3.758-6.729-8.37-7.245a7.772 7.772 0 01-3.975-2.642c-3.657-3.83-6.658-8.457-10.792-11.632-22.934-17.615-40.238-40.463-58.45-62.443-1.749-2.111-.619-6.373-1.724-9.3-3.5-9.257-7.183-18.461-11.308-27.451-1.422-3.1-4.465-5.423-6.553-8.258-1.7-2.308-3.8-4.671-4.462-7.323-1.879-7.583-3.112-15.325-4.814-24.116 8.379 2.9 7.032-1.132 6.157-5.613-4.255-21.8-9.506-43.507-11.964-65.519-1.654-14.8.791-30.057 1.32-45.113a84.711 84.711 0 00-.224-10.773c-.122-1.311-1.191-3.484-2.078-3.62-5.424-.827-4.339-4.385-4.238-8.118.315-11.37.151-22.758.351-34.138.1-5.621.594-11.234.91-16.851l2.134-.195 5.235 5.994c1.053-5.671 1.656-9.641 2.568-13.54.5-2.133 1.057-5.542 2.382-5.981 7.69-2.548 7.03-8.206 5.141-13.648a21.349 21.349 0 011.507-17.016C29.1 155.943 38.861 140 48.355 123.929c3.949-6.686 7.957-13.372 12.468-19.677 2.331-3.258 4.87-6.494 10.424-5.619 3.53.556 7.523-1.827 11.308-2.892l-.574-2.519-7.4.628-1.826-1.974a30.451 30.451 0 005.189-2.69c10.237-8.045 21.256-15.348 30.333-24.552 11.279-11.434 27.058-15.576 38.589-25.587 11.433-9.926 25.31-11.2 39.024-15.891l-3.074-5.232c.731-.526 1.216-1.133 1.8-1.25 3.087-.622 6.2-1.14 9.3-1.658 10.273-1.713 20.243-2.737 30.348-7.376 11.342-5.207 25-6.206 37.793-7.235 25.167-2.024 49.636 3.971 74.228 8.3 15.275 2.689 30.769 4.174 45.985 7.123 5.471 1.06 10.614 4.495 15.558 7.434 7.358 4.375 14.183 9.294 23.72 7.518 2.528-.471 5.8 2.535 8.6 4.16 6.186 3.586 12.292 7.309 17.45 10.39 3.03-.412 5.827-1.724 7.657-.9 18.356 8.294 31.926 22.7 45.477 37.327l-22.928-13.91-2.553 2.9a20.159 20.159 0 014.908 1.991c8.6 6.525 17.058 13.238 25.629 19.8a17.47 17.47 0 004.1 1.949c2.419.986 5.508 1.261 7.185 2.955 4.255 4.3 7.716 9.371 11.811 13.845 4.035 4.409 9.289 7.916 12.506 12.806a110.794 110.794 0 0110.135 21.021c.412 1.063-3.47 3.788-6.031 6.432l9.018 11.1 1.673-4.436 7.005 10.95 3.821-4.776c4.9.788 6.527 11.405 2.5 16.371 10.541 7.631 8.464 20.5 12.46 30.939 3.257 8.511 4.4 17.815 7.4 26.446 1.92 5.514 5.522 10.443 8.37 15.634l1.68-.342.8-7.471 1.737-.072q0 8.465-.006 16.931c0 .221-.126.442-.121.662.273 12.623 1.29 25.287.583 37.855-.5 8.86 3.169 17.913-2.116 26.785-3.183 5.343-4.1 12.047-5.948 18.164-.243.8-.359 2.2.091 2.576 5.272 4.46 2.4 9.637.954 14.267-6.14 19.641-14.386 38.806-18.559 58.834-5.118 24.564-20.446 43.114-32.167 63.865-.423.75-.723 1.569-1.245 2.722l5.776 2.823c-8.31 8.558-16.114 16.571-23.892 24.61-5.459 5.641-10.979 11.228-16.3 17-6.595 7.152-12.36 15.229-19.685 21.5-7.615 6.524-16.535 11.583-25.149 16.848a35.894 35.894 0 01-10.717 3.815c-3.857.877-6.282 2.142-7.193 6.617-1.065 5.225-12.65 8.052-17.987 6.022-2.653 2.515-4.234 5.015-6.475 5.981-21.148 9.115-42.84 16.51-65.952 18.637-6.431.592-11.98 1.41-17.946 5.423-5.6 3.77-14.093 3.4-21.367 4.5-23.369 3.531-46.659 2.953-69.563-2.995-22.2-5.765-44.222-12.206-66.3-18.418-1.688-.475-3.982-1.043-4.716-2.309-5.887-10.144-16.557-14.222-25.424-20.579-5.3-3.8-10.5-7.722-15.807-11.513a38.553 38.553 0 00-4.217-2.308zm-60.494-57.934c-3.594-13.914-11.984-24.19-19.568-36.4-.531 16.17 1.197 28.163 19.568 36.4zm-44.671-84.138l-2.637 1.2c.961 9.51 6.58 16.672 11.591 24.141l2.811-1.381zm227.3 177.465l-23.269-4.162c7.888 7.143 17.134 8.985 23.267 4.162zM108.7 542.371l1.81-1.86-20.839-19.334-1.654 1.644zm149.4 64.485l-.924 2.694 12.424 5.75 3.073-7.522c-5.532-.351-10.051-.636-14.57-.921zm35.568 6.581l.343-1.876c-5.406-3.527-10.9-6.31-17.414-1.114l17.07 2.989zm70.42-582.175l1.454-.874v-9.037l-9.64-2.4zm13.7-11.481l-1.473 3.819 12.178 3.963 1.107-2.977zm98.382 66.128l-1.524 1.558 9.138 9.578 2.188-2.282z" fill="#0a6259" opacity=".08"/></svg>