<svg xmlns="http://www.w3.org/2000/svg" width="18.729" height="18.694"><g fill="#1e451a"><path data-name="Path 9071" d="M14.025 12.414a1.869 1.869 0 00-2.647 0l-.9.9a16.283 16.283 0 01-2.812-2.251 16.283 16.283 0 01-2.255-2.809l.9-.9a1.869 1.869 0 000-2.647l-1.76-1.759a1.825 1.825 0 00-1.314-.55 1.869 1.869 0 00-1.327.55l-.844.839a3.968 3.968 0 00-1.025 3.27c.2 2.336 1.732 5.145 4.092 7.512s5.2 3.893 7.537 4.117a4.9 4.9 0 00.523 0 3.781 3.781 0 002.747-1.022l.841-.847a1.869 1.869 0 00.548-1.327 1.825 1.825 0 00-.548-1.314z"/><path data-name="Path 9072" d="M15.988 2.735A9.294 9.294 0 009.385 0a.623.623 0 000 1.246 8.1 8.1 0 018.1 8.166.623.623 0 001.246 0 9.288 9.288 0 00-2.741-6.678z"/><path data-name="Path 9073" d="M12.443 6.298a3.737 3.737 0 011.1 2.685.623.623 0 101.246 0 4.983 4.983 0 00-4.984-5.046.623.623 0 000 1.246 3.737 3.737 0 012.635 1.115z"/></g></svg>